<?xml version="1.0" encoding="utf-8"?>
<!-- Generator: Adobe Illustrator 21.0.0, SVG Export Plug-In . SVG Version: 6.00 Build 0)  -->
<svg version="1.1" id="Layer_1" xmlns="http://www.w3.org/2000/svg" xmlns:xlink="http://www.w3.org/1999/xlink" x="0px" y="0px"
	 width="3000px" height="2000px" viewBox="0 0 3000 2000" style="enable-background:new 0 0 3000 2000;" xml:space="preserve">
<style type="text/css">
	.st0{fill-rule:evenodd;clip-rule:evenodd;fill:#93EBDF;}
	.st1{fill-rule:evenodd;clip-rule:evenodd;fill:#AFFAF0;}
	.st2{fill-rule:evenodd;clip-rule:evenodd;fill:#E9A2CA;}
	.st3{fill-rule:evenodd;clip-rule:evenodd;fill:#FFFFFF;}
	.st4{fill-rule:evenodd;clip-rule:evenodd;fill:#653042;}
	.st5{fill:#FFFFFF;}
	.st6{fill-rule:evenodd;clip-rule:evenodd;fill:#F0BBD9;}
	.st7{fill-rule:evenodd;clip-rule:evenodd;fill:#FFCF61;}
	.st8{fill-rule:evenodd;clip-rule:evenodd;fill:#D29965;}
</style>
<g>
	<rect x="0.5" y="0.5" class="st0" width="3000" height="2000"/>
	<g>
		<g>
			<polygon class="st1" points="24.6,43.5 42.7,17.6 12.8,7.3 7.7,0.5 0.5,0.5 0.5,67.9 24,75.1 			"/>
			<polygon class="st1" points="225.6,65.9 255.8,75.1 256.4,43.5 274.5,17.6 244.6,7.3 239.5,0.5 211.7,0.5 206.5,7.3 176.6,17.6 
				194.8,43.5 195.3,75.1 			"/>
			<polygon class="st1" points="457.4,65.9 487.6,75.1 488.2,43.5 506.3,17.6 476.4,7.3 471.3,0.5 443.5,0.5 438.3,7.3 408.5,17.6 
				426.6,43.5 427.1,75.1 			"/>
			<polygon class="st1" points="689.2,65.9 719.4,75.1 720,43.5 738.1,17.6 708.2,7.3 703.1,0.5 675.3,0.5 670.1,7.3 640.3,17.6 
				658.4,43.5 658.9,75.1 			"/>
			<polygon class="st1" points="921,65.9 951.2,75.1 951.8,43.5 969.9,17.6 940,7.3 934.9,0.5 907.1,0.5 902,7.3 872.1,17.6 
				890.2,43.5 890.7,75.1 			"/>
			<polygon class="st1" points="1152.8,65.9 1183,75.1 1183.6,43.5 1201.7,17.6 1171.8,7.3 1166.7,0.5 1138.9,0.5 1133.8,7.3 
				1103.9,17.6 1122,43.5 1122.6,75.1 			"/>
			<polygon class="st1" points="1384.6,65.9 1414.8,75.1 1415.4,43.5 1433.5,17.6 1403.6,7.3 1398.5,0.5 1370.7,0.5 1365.6,7.3 
				1335.7,17.6 1353.8,43.5 1354.4,75.1 			"/>
			<polygon class="st1" points="1616.4,65.9 1646.6,75.1 1647.2,43.5 1665.3,17.6 1635.4,7.3 1630.3,0.5 1602.5,0.5 1597.4,7.3 
				1567.5,17.6 1585.6,43.5 1586.2,75.1 			"/>
			<polygon class="st1" points="1848.2,65.9 1878.4,75.1 1879,43.5 1897.1,17.6 1867.2,7.3 1862.1,0.5 1834.3,0.5 1829.2,7.3 
				1799.3,17.6 1817.4,43.5 1818,75.1 			"/>
			<polygon class="st1" points="2049.8,75.1 2080,65.9 2110.2,75.1 2110.8,43.5 2128.9,17.6 2099,7.3 2093.9,0.5 2066.1,0.5 
				2061,7.3 2031.1,17.6 2049.2,43.5 			"/>
			<polygon class="st1" points="2311.8,65.9 2342.1,75.1 2342.6,43.5 2360.7,17.6 2330.9,7.3 2325.7,0.5 2297.9,0.5 2292.8,7.3 
				2262.9,17.6 2281,43.5 2281.6,75.1 			"/>
			<polygon class="st1" points="2543.6,65.9 2573.9,75.1 2574.4,43.5 2592.5,17.6 2562.7,7.3 2557.5,0.5 2529.7,0.5 2524.6,7.3 
				2494.7,17.6 2512.8,43.5 2513.4,75.1 			"/>
			<polygon class="st1" points="2775.4,65.9 2805.7,75.1 2806.2,43.5 2824.4,17.6 2794.5,7.3 2789.3,0.5 2761.5,0.5 2756.4,7.3 
				2726.5,17.6 2744.6,43.5 2745.2,75.1 			"/>
			<polygon class="st1" points="3000.5,67.9 3000.5,0.5 2993.3,0.5 2988.2,7.3 2958.3,17.6 2976.4,43.5 2977,75.1 			"/>
		</g>
		<g>
			<g>
				<polygon class="st1" points="109.7,226.3 139.9,235.5 140.5,203.9 158.6,178 128.7,167.7 109.7,142.4 90.6,167.7 60.7,178 
					78.9,203.9 79.4,235.5 				"/>
				<polygon class="st1" points="341.5,226.3 371.7,235.5 372.3,203.9 390.4,178 360.5,167.7 341.5,142.4 322.4,167.7 292.5,178 
					310.7,203.9 311.2,235.5 				"/>
				<polygon class="st1" points="573.3,226.3 603.5,235.5 604.1,203.9 622.2,178 592.3,167.7 573.3,142.4 554.2,167.7 524.4,178 
					542.5,203.9 543,235.5 				"/>
				<polygon class="st1" points="805.1,226.3 835.3,235.5 835.9,203.9 854,178 824.1,167.7 805.1,142.4 786.1,167.7 756.2,178 
					774.3,203.9 774.8,235.5 				"/>
				<polygon class="st1" points="1036.9,226.3 1067.1,235.5 1067.7,203.9 1085.8,178 1055.9,167.7 1036.9,142.4 1017.9,167.7 
					988,178 1006.1,203.9 1006.7,235.5 				"/>
				<polygon class="st1" points="1268.7,226.3 1298.9,235.5 1299.5,203.9 1317.6,178 1287.7,167.7 1268.7,142.4 1249.7,167.7 
					1219.8,178 1237.9,203.9 1238.5,235.5 				"/>
				<polygon class="st1" points="1500.5,226.3 1530.7,235.5 1531.3,203.9 1549.4,178 1519.5,167.7 1500.5,142.4 1481.5,167.7 
					1451.6,178 1469.7,203.9 1470.3,235.5 				"/>
				<polygon class="st1" points="1732.3,226.3 1762.5,235.5 1763.1,203.9 1781.2,178 1751.3,167.7 1732.3,142.4 1713.3,167.7 
					1683.4,178 1701.5,203.9 1702.1,235.5 				"/>
				<polygon class="st1" points="1964.1,226.3 1994.3,235.5 1994.9,203.9 2013,178 1983.1,167.7 1964.1,142.4 1945.1,167.7 
					1915.2,178 1933.3,203.9 1933.9,235.5 				"/>
				<polygon class="st1" points="2195.9,226.3 2226.2,235.5 2226.7,203.9 2244.8,178 2214.9,167.7 2195.9,142.4 2176.9,167.7 
					2147,178 2165.1,203.9 2165.7,235.5 				"/>
				<polygon class="st1" points="2427.7,226.3 2458,235.5 2458.5,203.9 2476.6,178 2446.8,167.7 2427.7,142.4 2408.7,167.7 
					2378.8,178 2396.9,203.9 2397.5,235.5 				"/>
				<polygon class="st1" points="2659.5,226.3 2689.8,235.5 2690.3,203.9 2708.5,178 2678.6,167.7 2659.5,142.4 2640.5,167.7 
					2610.6,178 2628.7,203.9 2629.3,235.5 				"/>
				<polygon class="st1" points="2891.3,226.3 2921.6,235.5 2922.1,203.9 2940.3,178 2910.4,167.7 2891.3,142.4 2872.3,167.7 
					2842.4,178 2860.5,203.9 2861.1,235.5 				"/>
			</g>
			<g>
				<polygon class="st1" points="24.6,400.2 42.7,374.3 12.8,364 0.5,347.7 0.5,424.6 24,431.8 				"/>
				<polygon class="st1" points="225.6,422.6 255.8,431.8 256.4,400.2 274.5,374.3 244.6,364 225.6,338.8 206.5,364 176.6,374.3 
					194.8,400.2 195.3,431.8 				"/>
				<polygon class="st1" points="457.4,422.6 487.6,431.8 488.2,400.2 506.3,374.3 476.4,364 457.4,338.8 438.3,364 408.5,374.3 
					426.6,400.2 427.1,431.8 				"/>
				<polygon class="st1" points="689.2,422.6 719.4,431.8 720,400.2 738.1,374.3 708.2,364 689.2,338.8 670.1,364 640.3,374.3 
					658.4,400.2 658.9,431.8 				"/>
				<polygon class="st1" points="921,422.6 951.2,431.8 951.8,400.2 969.9,374.3 940,364 921,338.8 902,364 872.1,374.3 
					890.2,400.2 890.7,431.8 				"/>
				<polygon class="st1" points="1152.8,422.6 1183,431.8 1183.6,400.2 1201.7,374.3 1171.8,364 1152.8,338.8 1133.8,364 
					1103.9,374.3 1122,400.2 1122.6,431.8 				"/>
				<polygon class="st1" points="1384.6,422.6 1414.8,431.8 1415.4,400.2 1433.5,374.3 1403.6,364 1384.6,338.8 1365.6,364 
					1335.7,374.3 1353.8,400.2 1354.4,431.8 				"/>
				<polygon class="st1" points="1616.4,422.6 1646.6,431.8 1647.2,400.2 1665.3,374.3 1635.4,364 1616.4,338.8 1597.4,364 
					1567.5,374.3 1585.6,400.2 1586.2,431.8 				"/>
				<polygon class="st1" points="1848.2,422.6 1878.4,431.8 1879,400.2 1897.1,374.3 1867.2,364 1848.2,338.8 1829.2,364 
					1799.3,374.3 1817.4,400.2 1818,431.8 				"/>
				<polygon class="st1" points="2049.8,431.8 2080,422.6 2110.2,431.8 2110.8,400.2 2128.9,374.3 2099,364 2080,338.8 2061,364 
					2031.1,374.3 2049.2,400.2 				"/>
				<polygon class="st1" points="2311.8,422.6 2342.1,431.8 2342.6,400.2 2360.7,374.3 2330.9,364 2311.8,338.8 2292.8,364 
					2262.9,374.3 2281,400.2 2281.6,431.8 				"/>
				<polygon class="st1" points="2543.6,422.6 2573.9,431.8 2574.4,400.2 2592.5,374.3 2562.7,364 2543.6,338.8 2524.6,364 
					2494.7,374.3 2512.8,400.2 2513.4,431.8 				"/>
				<polygon class="st1" points="2775.4,422.6 2805.7,431.8 2806.2,400.2 2824.4,374.3 2794.5,364 2775.4,338.8 2756.4,364 
					2726.5,374.3 2744.6,400.2 2745.2,431.8 				"/>
				<polygon class="st1" points="3000.5,424.6 3000.5,347.7 2988.2,364 2958.3,374.3 2976.4,400.2 2977,431.8 				"/>
			</g>
		</g>
		<g>
			<g>
				<polygon class="st1" points="109.7,583 139.9,592.2 140.5,560.6 158.6,534.7 128.7,524.4 109.7,499.1 90.6,524.4 60.7,534.7 
					78.9,560.6 79.4,592.2 				"/>
				<polygon class="st1" points="341.5,583 371.7,592.2 372.3,560.6 390.4,534.7 360.5,524.4 341.5,499.1 322.4,524.4 292.5,534.7 
					310.7,560.6 311.2,592.2 				"/>
				<polygon class="st1" points="573.3,583 603.5,592.2 604.1,560.6 622.2,534.7 592.3,524.4 573.3,499.1 554.2,524.4 524.4,534.7 
					542.5,560.6 543,592.2 				"/>
				<polygon class="st1" points="805.1,583 835.3,592.2 835.9,560.6 854,534.7 824.1,524.4 805.1,499.1 786.1,524.4 756.2,534.7 
					774.3,560.6 774.8,592.2 				"/>
				<polygon class="st1" points="1036.9,583 1067.1,592.2 1067.7,560.6 1085.8,534.7 1055.9,524.4 1036.9,499.1 1017.9,524.4 
					988,534.7 1006.1,560.6 1006.7,592.2 				"/>
				<polygon class="st1" points="1268.7,583 1298.9,592.2 1299.5,560.6 1317.6,534.7 1287.7,524.4 1268.7,499.1 1249.7,524.4 
					1219.8,534.7 1237.9,560.6 1238.5,592.2 				"/>
				<polygon class="st1" points="1500.5,583 1530.7,592.2 1531.3,560.6 1549.4,534.7 1519.5,524.4 1500.5,499.1 1481.5,524.4 
					1451.6,534.7 1469.7,560.6 1470.3,592.2 				"/>
				<polygon class="st1" points="1732.3,583 1762.5,592.2 1763.1,560.6 1781.2,534.7 1751.3,524.4 1732.3,499.1 1713.3,524.4 
					1683.4,534.7 1701.5,560.6 1702.1,592.2 				"/>
				<polygon class="st1" points="1964.1,583 1994.3,592.2 1994.9,560.6 2013,534.7 1983.1,524.4 1964.1,499.1 1945.1,524.4 
					1915.2,534.7 1933.3,560.6 1933.9,592.2 				"/>
				<polygon class="st1" points="2195.9,583 2226.2,592.2 2226.7,560.6 2244.8,534.7 2214.9,524.4 2195.9,499.1 2176.9,524.4 
					2147,534.7 2165.1,560.6 2165.7,592.2 				"/>
				<polygon class="st1" points="2427.7,583 2458,592.2 2458.5,560.6 2476.6,534.7 2446.8,524.4 2427.7,499.1 2408.7,524.4 
					2378.8,534.7 2396.9,560.6 2397.5,592.2 				"/>
				<polygon class="st1" points="2659.5,583 2689.8,592.2 2690.3,560.6 2708.5,534.7 2678.6,524.4 2659.5,499.1 2640.5,524.4 
					2610.6,534.7 2628.7,560.6 2629.3,592.2 				"/>
				<polygon class="st1" points="2891.3,583 2921.6,592.2 2922.1,560.6 2940.3,534.7 2910.4,524.4 2891.3,499.1 2872.3,524.4 
					2842.4,534.7 2860.5,560.6 2861.1,592.2 				"/>
			</g>
			<g>
				<polygon class="st1" points="24.6,756.9 42.7,731 12.8,720.7 0.5,704.4 0.5,781.3 24,788.5 				"/>
				<polygon class="st1" points="225.6,779.3 255.8,788.5 256.4,756.9 274.5,731 244.6,720.7 225.6,695.4 206.5,720.7 176.6,731 
					194.8,756.9 195.3,788.5 				"/>
				<polygon class="st1" points="457.4,779.3 487.6,788.5 488.2,756.9 506.3,731 476.4,720.7 457.4,695.4 438.3,720.7 408.5,731 
					426.6,756.9 427.1,788.5 				"/>
				<polygon class="st1" points="689.2,779.3 719.4,788.5 720,756.9 738.1,731 708.2,720.7 689.2,695.4 670.1,720.7 640.3,731 
					658.4,756.9 658.9,788.5 				"/>
				<polygon class="st1" points="921,779.3 951.2,788.5 951.8,756.9 969.9,731 940,720.7 921,695.4 902,720.7 872.1,731 
					890.2,756.9 890.7,788.5 				"/>
				<polygon class="st1" points="1152.8,779.3 1183,788.5 1183.6,756.9 1201.7,731 1171.8,720.7 1152.8,695.4 1133.8,720.7 
					1103.9,731 1122,756.9 1122.6,788.5 				"/>
				<polygon class="st1" points="1384.6,779.3 1414.8,788.5 1415.4,756.9 1433.5,731 1403.6,720.7 1384.6,695.4 1365.6,720.7 
					1335.7,731 1353.8,756.9 1354.4,788.5 				"/>
				<polygon class="st1" points="1616.4,779.3 1646.6,788.5 1647.2,756.9 1665.3,731 1635.4,720.7 1616.4,695.4 1597.4,720.7 
					1567.5,731 1585.6,756.9 1586.2,788.5 				"/>
				<polygon class="st1" points="1848.2,779.3 1878.4,788.5 1879,756.9 1897.1,731 1867.2,720.7 1848.2,695.4 1829.2,720.7 
					1799.3,731 1817.4,756.9 1818,788.5 				"/>
				<polygon class="st1" points="2049.8,788.5 2080,779.3 2110.2,788.5 2110.8,756.9 2128.9,731 2099,720.7 2080,695.4 2061,720.7 
					2031.1,731 2049.2,756.9 				"/>
				<polygon class="st1" points="2311.8,779.3 2342.1,788.5 2342.6,756.9 2360.7,731 2330.9,720.7 2311.8,695.4 2292.8,720.7 
					2262.9,731 2281,756.9 2281.6,788.5 				"/>
				<polygon class="st1" points="2543.6,779.3 2573.9,788.5 2574.4,756.9 2592.5,731 2562.7,720.7 2543.6,695.4 2524.6,720.7 
					2494.7,731 2512.8,756.9 2513.4,788.5 				"/>
				<polygon class="st1" points="2775.4,779.3 2805.7,788.5 2806.2,756.9 2824.4,731 2794.5,720.7 2775.4,695.4 2756.4,720.7 
					2726.5,731 2744.6,756.9 2745.2,788.5 				"/>
				<polygon class="st1" points="3000.5,781.3 3000.5,704.4 2988.2,720.7 2958.3,731 2976.4,756.9 2977,788.5 				"/>
			</g>
		</g>
		<g>
			<g>
				<polygon class="st1" points="109.7,939.6 139.9,948.9 140.5,917.3 158.6,891.4 128.7,881.1 109.7,855.8 90.6,881.1 60.7,891.4 
					78.9,917.3 79.4,948.9 				"/>
				<polygon class="st1" points="341.5,939.6 371.7,948.9 372.3,917.3 390.4,891.4 360.5,881.1 341.5,855.8 322.4,881.1 
					292.5,891.4 310.7,917.3 311.2,948.9 				"/>
				<polygon class="st1" points="573.3,939.6 603.5,948.9 604.1,917.3 622.2,891.4 592.3,881.1 573.3,855.8 554.2,881.1 
					524.4,891.4 542.5,917.3 543,948.9 				"/>
				<polygon class="st1" points="805.1,939.6 835.3,948.9 835.9,917.3 854,891.4 824.1,881.1 805.1,855.8 786.1,881.1 756.2,891.4 
					774.3,917.3 774.8,948.9 				"/>
				<polygon class="st1" points="1036.9,939.6 1067.1,948.9 1067.7,917.3 1085.8,891.4 1055.9,881.1 1036.9,855.8 1017.9,881.1 
					988,891.4 1006.1,917.3 1006.7,948.9 				"/>
				<polygon class="st1" points="1268.7,939.6 1298.9,948.9 1299.5,917.3 1317.6,891.4 1287.7,881.1 1268.7,855.8 1249.7,881.1 
					1219.8,891.4 1237.9,917.3 1238.5,948.9 				"/>
				<polygon class="st1" points="1500.5,939.6 1530.7,948.9 1531.3,917.3 1549.4,891.4 1519.5,881.1 1500.5,855.8 1481.5,881.1 
					1451.6,891.4 1469.7,917.3 1470.3,948.9 				"/>
				<polygon class="st1" points="1732.3,939.6 1762.5,948.9 1763.1,917.3 1781.2,891.4 1751.3,881.1 1732.3,855.8 1713.3,881.1 
					1683.4,891.4 1701.5,917.3 1702.1,948.9 				"/>
				<polygon class="st1" points="1964.1,939.6 1994.3,948.9 1994.9,917.3 2013,891.4 1983.1,881.1 1964.1,855.8 1945.1,881.1 
					1915.2,891.4 1933.3,917.3 1933.9,948.9 				"/>
				<polygon class="st1" points="2195.9,939.6 2226.2,948.9 2226.7,917.3 2244.8,891.4 2214.9,881.1 2195.9,855.8 2176.9,881.1 
					2147,891.4 2165.1,917.3 2165.7,948.9 				"/>
				<polygon class="st1" points="2427.7,939.6 2458,948.9 2458.5,917.3 2476.6,891.4 2446.8,881.1 2427.7,855.8 2408.7,881.1 
					2378.8,891.4 2396.9,917.3 2397.5,948.9 				"/>
				<polygon class="st1" points="2659.5,939.6 2689.8,948.9 2690.3,917.3 2708.5,891.4 2678.6,881.1 2659.5,855.8 2640.5,881.1 
					2610.6,891.4 2628.7,917.3 2629.3,948.9 				"/>
				<polygon class="st1" points="2891.3,939.6 2921.6,948.9 2922.1,917.3 2940.3,891.4 2910.4,881.1 2891.3,855.8 2872.3,881.1 
					2842.4,891.4 2860.5,917.3 2861.1,948.9 				"/>
			</g>
			<g>
				<polygon class="st1" points="24.6,1113.6 42.7,1087.7 12.8,1077.4 0.5,1061.1 0.5,1138 24,1145.2 				"/>
				<polygon class="st1" points="225.6,1135.9 255.8,1145.2 256.4,1113.6 274.5,1087.7 244.6,1077.4 225.6,1052.1 206.5,1077.4 
					176.6,1087.7 194.8,1113.6 195.3,1145.2 				"/>
				<polygon class="st1" points="457.4,1135.9 487.6,1145.2 488.2,1113.6 506.3,1087.7 476.4,1077.4 457.4,1052.1 438.3,1077.4 
					408.5,1087.7 426.6,1113.6 427.1,1145.2 				"/>
				<polygon class="st1" points="689.2,1135.9 719.4,1145.2 720,1113.6 738.1,1087.7 708.2,1077.4 689.2,1052.1 670.1,1077.4 
					640.3,1087.7 658.4,1113.6 658.9,1145.2 				"/>
				<polygon class="st1" points="921,1135.9 951.2,1145.2 951.8,1113.6 969.9,1087.7 940,1077.4 921,1052.1 902,1077.4 
					872.1,1087.7 890.2,1113.6 890.7,1145.2 				"/>
				<polygon class="st1" points="1152.8,1135.9 1183,1145.2 1183.6,1113.6 1201.7,1087.7 1171.8,1077.4 1152.8,1052.1 
					1133.8,1077.4 1103.9,1087.7 1122,1113.6 1122.6,1145.2 				"/>
				<polygon class="st1" points="1384.6,1135.9 1414.8,1145.2 1415.4,1113.6 1433.5,1087.7 1403.6,1077.4 1384.6,1052.1 
					1365.6,1077.4 1335.7,1087.7 1353.8,1113.6 1354.4,1145.2 				"/>
				<polygon class="st1" points="1616.4,1135.9 1646.6,1145.2 1647.2,1113.6 1665.3,1087.7 1635.4,1077.4 1616.4,1052.1 
					1597.4,1077.4 1567.5,1087.7 1585.6,1113.6 1586.2,1145.2 				"/>
				<polygon class="st1" points="1848.2,1135.9 1878.4,1145.2 1879,1113.6 1897.1,1087.7 1867.2,1077.4 1848.2,1052.1 
					1829.2,1077.4 1799.3,1087.7 1817.4,1113.6 1818,1145.2 				"/>
				<polygon class="st1" points="2049.8,1145.2 2080,1135.9 2110.2,1145.2 2110.8,1113.6 2128.9,1087.7 2099,1077.4 2080,1052.1 
					2061,1077.4 2031.1,1087.7 2049.2,1113.6 				"/>
				<polygon class="st1" points="2311.8,1135.9 2342.1,1145.2 2342.6,1113.6 2360.7,1087.7 2330.9,1077.4 2311.8,1052.1 
					2292.8,1077.4 2262.9,1087.7 2281,1113.6 2281.6,1145.2 				"/>
				<polygon class="st1" points="2543.6,1135.9 2573.9,1145.2 2574.4,1113.6 2592.5,1087.7 2562.7,1077.4 2543.6,1052.1 
					2524.6,1077.4 2494.7,1087.7 2512.8,1113.6 2513.4,1145.2 				"/>
				<polygon class="st1" points="2775.4,1135.9 2805.7,1145.2 2806.2,1113.6 2824.4,1087.7 2794.5,1077.4 2775.4,1052.1 
					2756.4,1077.4 2726.5,1087.7 2744.6,1113.6 2745.2,1145.2 				"/>
				<polygon class="st1" points="3000.5,1138 3000.5,1061.1 2988.2,1077.4 2958.3,1087.7 2976.4,1113.6 2977,1145.2 				"/>
			</g>
		</g>
		<g>
			<g>
				<polygon class="st1" points="109.7,1296.3 139.9,1305.6 140.5,1274 158.6,1248 128.7,1237.7 109.7,1212.5 90.6,1237.7 
					60.7,1248 78.9,1274 79.4,1305.6 				"/>
				<polygon class="st1" points="341.5,1296.3 371.7,1305.6 372.3,1274 390.4,1248 360.5,1237.7 341.5,1212.5 322.4,1237.7 
					292.5,1248 310.7,1274 311.2,1305.6 				"/>
				<polygon class="st1" points="573.3,1296.3 603.5,1305.6 604.1,1274 622.2,1248 592.3,1237.7 573.3,1212.5 554.2,1237.7 
					524.4,1248 542.5,1274 543,1305.6 				"/>
				<polygon class="st1" points="805.1,1296.3 835.3,1305.6 835.9,1274 854,1248 824.1,1237.7 805.1,1212.5 786.1,1237.7 
					756.2,1248 774.3,1274 774.8,1305.6 				"/>
				<polygon class="st1" points="1036.9,1296.3 1067.1,1305.6 1067.7,1274 1085.8,1248 1055.9,1237.7 1036.9,1212.5 1017.9,1237.7 
					988,1248 1006.1,1274 1006.7,1305.6 				"/>
				<polygon class="st1" points="1268.7,1296.3 1298.9,1305.6 1299.5,1274 1317.6,1248 1287.7,1237.7 1268.7,1212.5 1249.7,1237.7 
					1219.8,1248 1237.9,1274 1238.5,1305.6 				"/>
				<polygon class="st1" points="1500.5,1296.3 1530.7,1305.6 1531.3,1274 1549.4,1248 1519.5,1237.7 1500.5,1212.5 1481.5,1237.7 
					1451.6,1248 1469.7,1274 1470.3,1305.6 				"/>
				<polygon class="st1" points="1732.3,1296.3 1762.5,1305.6 1763.1,1274 1781.2,1248 1751.3,1237.7 1732.3,1212.5 1713.3,1237.7 
					1683.4,1248 1701.5,1274 1702.1,1305.6 				"/>
				<polygon class="st1" points="1964.1,1296.3 1994.3,1305.6 1994.9,1274 2013,1248 1983.1,1237.7 1964.1,1212.5 1945.1,1237.7 
					1915.2,1248 1933.3,1274 1933.9,1305.6 				"/>
				<polygon class="st1" points="2195.9,1296.3 2226.2,1305.6 2226.7,1274 2244.8,1248 2214.9,1237.7 2195.9,1212.5 2176.9,1237.7 
					2147,1248 2165.1,1274 2165.7,1305.6 				"/>
				<polygon class="st1" points="2427.7,1296.3 2458,1305.6 2458.5,1274 2476.6,1248 2446.8,1237.7 2427.7,1212.5 2408.7,1237.7 
					2378.8,1248 2396.9,1274 2397.5,1305.6 				"/>
				<polygon class="st1" points="2659.5,1296.3 2689.8,1305.6 2690.3,1274 2708.5,1248 2678.6,1237.7 2659.5,1212.5 2640.5,1237.7 
					2610.6,1248 2628.7,1274 2629.3,1305.6 				"/>
				<polygon class="st1" points="2891.3,1296.3 2921.6,1305.6 2922.1,1274 2940.3,1248 2910.4,1237.7 2891.3,1212.5 2872.3,1237.7 
					2842.4,1248 2860.5,1274 2861.1,1305.6 				"/>
			</g>
			<g>
				<polygon class="st1" points="24.6,1470.3 42.7,1444.4 12.8,1434.1 0.5,1417.7 0.5,1494.7 24,1501.9 				"/>
				<polygon class="st1" points="225.6,1492.6 255.8,1501.9 256.4,1470.3 274.5,1444.4 244.6,1434.1 225.6,1408.8 206.5,1434.1 
					176.6,1444.4 194.8,1470.3 195.3,1501.9 				"/>
				<polygon class="st1" points="457.4,1492.6 487.6,1501.9 488.2,1470.3 506.3,1444.4 476.4,1434.1 457.4,1408.8 438.3,1434.1 
					408.5,1444.4 426.6,1470.3 427.1,1501.9 				"/>
				<polygon class="st1" points="689.2,1492.6 719.4,1501.9 720,1470.3 738.1,1444.4 708.2,1434.1 689.2,1408.8 670.1,1434.1 
					640.3,1444.4 658.4,1470.3 658.9,1501.9 				"/>
				<polygon class="st1" points="921,1492.6 951.2,1501.9 951.8,1470.3 969.9,1444.4 940,1434.1 921,1408.8 902,1434.1 
					872.1,1444.4 890.2,1470.3 890.7,1501.9 				"/>
				<polygon class="st1" points="1152.8,1492.6 1183,1501.9 1183.6,1470.3 1201.7,1444.4 1171.8,1434.1 1152.8,1408.8 
					1133.8,1434.1 1103.9,1444.4 1122,1470.3 1122.6,1501.9 				"/>
				<polygon class="st1" points="1384.6,1492.6 1414.8,1501.9 1415.4,1470.3 1433.5,1444.4 1403.6,1434.1 1384.6,1408.8 
					1365.6,1434.1 1335.7,1444.4 1353.8,1470.3 1354.4,1501.9 				"/>
				<polygon class="st1" points="1616.4,1492.6 1646.6,1501.9 1647.2,1470.3 1665.3,1444.4 1635.4,1434.1 1616.4,1408.8 
					1597.4,1434.1 1567.5,1444.4 1585.6,1470.3 1586.2,1501.9 				"/>
				<polygon class="st1" points="1848.2,1492.6 1878.4,1501.9 1879,1470.3 1897.1,1444.4 1867.2,1434.1 1848.2,1408.8 
					1829.2,1434.1 1799.3,1444.4 1817.4,1470.3 1818,1501.9 				"/>
				<polygon class="st1" points="2049.8,1501.9 2080,1492.6 2110.2,1501.9 2110.8,1470.3 2128.9,1444.4 2099,1434.1 2080,1408.8 
					2061,1434.1 2031.1,1444.4 2049.2,1470.3 				"/>
				<polygon class="st1" points="2311.8,1492.6 2342.1,1501.9 2342.6,1470.3 2360.7,1444.4 2330.9,1434.1 2311.8,1408.8 
					2292.8,1434.1 2262.9,1444.4 2281,1470.3 2281.6,1501.9 				"/>
				<polygon class="st1" points="2543.6,1492.6 2573.9,1501.9 2574.4,1470.3 2592.5,1444.4 2562.7,1434.1 2543.6,1408.8 
					2524.6,1434.1 2494.7,1444.4 2512.8,1470.3 2513.4,1501.9 				"/>
				<polygon class="st1" points="2775.4,1492.6 2805.7,1501.9 2806.2,1470.3 2824.4,1444.4 2794.5,1434.1 2775.4,1408.8 
					2756.4,1434.1 2726.5,1444.4 2744.6,1470.3 2745.2,1501.9 				"/>
				<polygon class="st1" points="3000.5,1494.7 3000.5,1417.7 2988.2,1434.1 2958.3,1444.4 2976.4,1470.3 2977,1501.9 				"/>
			</g>
		</g>
		<g>
			<g>
				<polygon class="st1" points="109.7,1653 139.9,1662.2 140.5,1630.6 158.6,1604.7 128.7,1594.4 109.7,1569.2 90.6,1594.4 
					60.7,1604.7 78.9,1630.6 79.4,1662.2 				"/>
				<polygon class="st1" points="341.5,1653 371.7,1662.2 372.3,1630.6 390.4,1604.7 360.5,1594.4 341.5,1569.2 322.4,1594.4 
					292.5,1604.7 310.7,1630.6 311.2,1662.2 				"/>
				<polygon class="st1" points="573.3,1653 603.5,1662.2 604.1,1630.6 622.2,1604.7 592.3,1594.4 573.3,1569.2 554.2,1594.4 
					524.4,1604.7 542.5,1630.6 543,1662.2 				"/>
				<polygon class="st1" points="805.1,1653 835.3,1662.2 835.9,1630.6 854,1604.7 824.1,1594.4 805.1,1569.2 786.1,1594.4 
					756.2,1604.7 774.3,1630.6 774.8,1662.2 				"/>
				<polygon class="st1" points="1036.9,1653 1067.1,1662.2 1067.7,1630.6 1085.8,1604.7 1055.9,1594.4 1036.9,1569.2 
					1017.9,1594.4 988,1604.7 1006.1,1630.6 1006.7,1662.2 				"/>
				<polygon class="st1" points="1268.7,1653 1298.9,1662.2 1299.5,1630.6 1317.6,1604.7 1287.7,1594.4 1268.7,1569.2 
					1249.7,1594.4 1219.8,1604.7 1237.9,1630.6 1238.5,1662.2 				"/>
				<polygon class="st1" points="1500.5,1653 1530.7,1662.2 1531.3,1630.6 1549.4,1604.7 1519.5,1594.4 1500.5,1569.2 
					1481.5,1594.4 1451.6,1604.7 1469.7,1630.6 1470.3,1662.2 				"/>
				<polygon class="st1" points="1732.3,1653 1762.5,1662.2 1763.1,1630.6 1781.2,1604.7 1751.3,1594.4 1732.3,1569.2 
					1713.3,1594.4 1683.4,1604.7 1701.5,1630.6 1702.1,1662.2 				"/>
				<polygon class="st1" points="1964.1,1653 1994.3,1662.2 1994.9,1630.6 2013,1604.7 1983.1,1594.4 1964.1,1569.2 1945.1,1594.4 
					1915.2,1604.7 1933.3,1630.6 1933.9,1662.2 				"/>
				<polygon class="st1" points="2195.9,1653 2226.2,1662.2 2226.7,1630.6 2244.8,1604.7 2214.9,1594.4 2195.9,1569.2 
					2176.9,1594.4 2147,1604.7 2165.1,1630.6 2165.7,1662.2 				"/>
				<polygon class="st1" points="2427.7,1653 2458,1662.2 2458.5,1630.6 2476.6,1604.7 2446.8,1594.4 2427.7,1569.2 2408.7,1594.4 
					2378.8,1604.7 2396.9,1630.6 2397.5,1662.2 				"/>
				<polygon class="st1" points="2659.5,1653 2689.8,1662.2 2690.3,1630.6 2708.5,1604.7 2678.6,1594.4 2659.5,1569.2 
					2640.5,1594.4 2610.6,1604.7 2628.7,1630.6 2629.3,1662.2 				"/>
				<polygon class="st1" points="2891.3,1653 2921.6,1662.2 2922.1,1630.6 2940.3,1604.7 2910.4,1594.4 2891.3,1569.2 
					2872.3,1594.4 2842.4,1604.7 2860.5,1630.6 2861.1,1662.2 				"/>
			</g>
			<g>
				<polygon class="st1" points="24.6,1826.9 42.7,1801 12.8,1790.7 0.5,1774.4 0.5,1851.4 24,1858.6 				"/>
				<polygon class="st1" points="225.6,1849.3 255.8,1858.6 256.4,1826.9 274.5,1801 244.6,1790.7 225.6,1765.5 206.5,1790.7 
					176.6,1801 194.8,1826.9 195.3,1858.6 				"/>
				<polygon class="st1" points="457.4,1849.3 487.6,1858.6 488.2,1826.9 506.3,1801 476.4,1790.7 457.4,1765.5 438.3,1790.7 
					408.5,1801 426.6,1826.9 427.1,1858.6 				"/>
				<polygon class="st1" points="689.2,1849.3 719.4,1858.6 720,1826.9 738.1,1801 708.2,1790.7 689.2,1765.5 670.1,1790.7 
					640.3,1801 658.4,1826.9 658.9,1858.6 				"/>
				<polygon class="st1" points="921,1849.3 951.2,1858.6 951.8,1826.9 969.9,1801 940,1790.7 921,1765.5 902,1790.7 872.1,1801 
					890.2,1826.9 890.7,1858.6 				"/>
				<polygon class="st1" points="1152.8,1849.3 1183,1858.6 1183.6,1826.9 1201.7,1801 1171.8,1790.7 1152.8,1765.5 1133.8,1790.7 
					1103.9,1801 1122,1826.9 1122.6,1858.6 				"/>
				<polygon class="st1" points="1384.6,1849.3 1414.8,1858.6 1415.4,1826.9 1433.5,1801 1403.6,1790.7 1384.6,1765.5 
					1365.6,1790.7 1335.7,1801 1353.8,1826.9 1354.4,1858.6 				"/>
				<polygon class="st1" points="1616.4,1849.3 1646.6,1858.6 1647.2,1826.9 1665.3,1801 1635.4,1790.7 1616.4,1765.5 
					1597.4,1790.7 1567.5,1801 1585.6,1826.9 1586.2,1858.6 				"/>
				<polygon class="st1" points="1848.2,1849.3 1878.4,1858.6 1879,1826.9 1897.1,1801 1867.2,1790.7 1848.2,1765.5 1829.2,1790.7 
					1799.3,1801 1817.4,1826.9 1818,1858.6 				"/>
				<polygon class="st1" points="2049.8,1858.6 2080,1849.3 2110.2,1858.6 2110.8,1826.9 2128.9,1801 2099,1790.7 2080,1765.5 
					2061,1790.7 2031.1,1801 2049.2,1826.9 				"/>
				<polygon class="st1" points="2311.8,1849.3 2342.1,1858.6 2342.6,1826.9 2360.7,1801 2330.9,1790.7 2311.8,1765.5 
					2292.8,1790.7 2262.9,1801 2281,1826.9 2281.6,1858.6 				"/>
				<polygon class="st1" points="2543.6,1849.3 2573.9,1858.6 2574.4,1826.9 2592.5,1801 2562.7,1790.7 2543.6,1765.5 
					2524.6,1790.7 2494.7,1801 2512.8,1826.9 2513.4,1858.6 				"/>
				<polygon class="st1" points="2775.4,1849.3 2805.7,1858.6 2806.2,1826.9 2824.4,1801 2794.5,1790.7 2775.4,1765.5 
					2756.4,1790.7 2726.5,1801 2744.6,1826.9 2745.2,1858.6 				"/>
				<polygon class="st1" points="3000.5,1851.4 3000.5,1774.4 2988.2,1790.7 2958.3,1801 2976.4,1826.9 2977,1858.6 				"/>
			</g>
		</g>
		<g>
			<polygon class="st1" points="140.2,2000.5 140.5,1987.3 158.6,1961.4 128.7,1951.1 109.7,1925.9 90.6,1951.1 60.7,1961.4 
				78.9,1987.3 79.1,2000.5 			"/>
			<polygon class="st1" points="372,2000.5 372.3,1987.3 390.4,1961.4 360.5,1951.1 341.5,1925.9 322.4,1951.1 292.5,1961.4 
				310.7,1987.3 310.9,2000.5 			"/>
			<polygon class="st1" points="603.8,2000.5 604.1,1987.3 622.2,1961.4 592.3,1951.1 573.3,1925.9 554.2,1951.1 524.4,1961.4 
				542.5,1987.3 542.7,2000.5 			"/>
			<polygon class="st1" points="835.6,2000.5 835.9,1987.3 854,1961.4 824.1,1951.1 805.1,1925.9 786.1,1951.1 756.2,1961.4 
				774.3,1987.3 774.5,2000.5 			"/>
			<polygon class="st1" points="1067.5,2000.5 1067.7,1987.3 1085.8,1961.4 1055.9,1951.1 1036.9,1925.9 1017.9,1951.1 988,1961.4 
				1006.1,1987.3 1006.3,2000.5 			"/>
			<polygon class="st1" points="1299.3,2000.5 1299.5,1987.3 1317.6,1961.4 1287.7,1951.1 1268.7,1925.9 1249.7,1951.1 
				1219.8,1961.4 1237.9,1987.3 1238.1,2000.5 			"/>
			<polygon class="st1" points="1531.1,2000.5 1531.3,1987.3 1549.4,1961.4 1519.5,1951.1 1500.5,1925.9 1481.5,1951.1 
				1451.6,1961.4 1469.7,1987.3 1469.9,2000.5 			"/>
			<polygon class="st1" points="1762.9,2000.5 1763.1,1987.3 1781.2,1961.4 1751.3,1951.1 1732.3,1925.9 1713.3,1951.1 
				1683.4,1961.4 1701.5,1987.3 1701.7,2000.5 			"/>
			<polygon class="st1" points="1994.7,2000.5 1994.9,1987.3 2013,1961.4 1983.1,1951.1 1964.1,1925.9 1945.1,1951.1 1915.2,1961.4 
				1933.3,1987.3 1933.5,2000.5 			"/>
			<polygon class="st1" points="2226.5,2000.5 2226.7,1987.3 2244.8,1961.4 2214.9,1951.1 2195.9,1925.9 2176.9,1951.1 2147,1961.4 
				2165.1,1987.3 2165.4,2000.5 			"/>
			<polygon class="st1" points="2458.3,2000.5 2458.5,1987.3 2476.6,1961.4 2446.8,1951.1 2427.7,1925.9 2408.7,1951.1 
				2378.8,1961.4 2396.9,1987.3 2397.2,2000.5 			"/>
			<polygon class="st1" points="2690.1,2000.5 2690.3,1987.3 2708.5,1961.4 2678.6,1951.1 2659.5,1925.9 2640.5,1951.1 
				2610.6,1961.4 2628.7,1987.3 2629,2000.5 			"/>
			<polygon class="st1" points="2921.9,2000.5 2922.1,1987.3 2940.3,1961.4 2910.4,1951.1 2891.3,1925.9 2872.3,1951.1 
				2842.4,1961.4 2860.5,1987.3 2860.8,2000.5 			"/>
		</g>
	</g>
	<g>
		<path class="st2" d="M1991.1,1211.3V873.5c0-269-220.1-489-489-489h0c-269,0-489,220.1-489,489v337.7
			c0,114,39.5,219.1,105.5,302.5h767C1951.6,1430.4,1991.1,1325.2,1991.1,1211.3z"/>
		<path class="st3" d="M1766.7,1513.8c89.3-75.5,146.3-188.3,146.3-313.7V884.7c0-226-184.9-410.9-410.9-410.9
			s-410.9,184.9-410.9,410.9v315.4c0,125.4,57,238.2,146.3,313.7H1766.7z"/>
		<path class="st4" d="M1232.1,1520.1l2.4,2h535.3l2.3-2c46.5-39.3,84.3-88.4,110.3-144.1c25-53.6,39-113.2,39-176V884.7
			c0-115.3-47.2-220.1-123.2-296.1c-76-76-180.8-123.2-296.1-123.2c-115.3,0-220.1,47.2-296.1,123.2c-76,76-123.1,180.8-123.1,296.1
			v315.4c0,62.7,14,122.4,39,176C1147.7,1431.7,1185.6,1480.8,1232.1,1520.1z M1099.5,1200.1V884.7c0-110.7,45.3-211.4,118.3-284.3
			c73-73,173.6-118.3,284.3-118.3c110.7,0,211.4,45.3,284.3,118.3c73,73,118.3,173.6,118.3,284.3v315.4
			c0,60.2-13.4,117.5-37.4,168.9c-24.5,52.6-60.1,99.1-103.6,136.4h-523.2c-43.5-37.4-79.1-83.9-103.6-136.4
			C1112.9,1317.6,1099.5,1260.3,1099.5,1200.1z"/>
		<path class="st0" d="M1708.4,1513.8c103.9-67.8,172.9-185.1,172.9-317.7V888.8c0-208.6-170.7-379.3-379.3-379.3h0
			c-208.6,0-379.3,170.7-379.3,379.3V1196c0,132.6,69,249.9,172.9,317.7H1708.4z"/>
		<path class="st4" d="M1291.2,1520.7l2.1,1.4h417.6l2.1-1.4c54.1-35.3,98.9-83.7,129.8-140.6c29.9-54.9,46.8-117.6,46.8-184.1
			V888.8c0-106.6-43.6-203.5-113.8-273.7c-70.2-70.2-167.1-113.8-273.7-113.8c-106.6,0-203.5,43.6-273.7,113.8
			c-70.2,70.2-113.8,167.1-113.8,273.7V1196c0,66.5,17,129.2,46.8,184.1C1192.3,1437,1237.1,1485.4,1291.2,1520.7z M1131.1,1196
			V888.8c0-102,41.7-194.7,109-262c67.2-67.2,160-109,262-109c102,0,194.7,41.7,262,109c67.2,67.2,109,160,109,262V1196
			c0,63.7-16.2,123.7-44.8,176.1c-29.2,53.8-71.4,99.6-122.2,133.3h-407.9c-50.8-33.7-93-79.5-122.2-133.3
			C1147.4,1319.7,1131.1,1259.7,1131.1,1196z"/>
		<path class="st4" d="M1261.2,755.7c-3.3,1.2-6.3,4.2-8.8,8.8l-7,12.8l36.9,20.3l5.5-10l-12.3-6.7l1.5-2.8
			c2.5-4.5,3.2-8.5,2.3-12.2c-0.9-3.7-3.4-6.6-7.6-8.9C1268,754.9,1264.5,754.5,1261.2,755.7z M1266.3,767.1
			c1.5,0.8,2.4,1.9,2.8,3.2c0.4,1.3,0.1,2.8-0.7,4.3l-1,1.8l-8.5-4.7l1.4-2.6C1261.8,766.5,1263.8,765.8,1266.3,767.1z"/>
		<path class="st4" d="M1333.8,666.2l-12.3,8.8l24.6,34.2l8.2-5.9l-10.7-14.8c-1.7-2.3-4.2-5.5-7.5-9.4l0.2-0.2l24.7,19.6l8.8-6.3
			l-10.8-29.5l0.2-0.2c2.5,3.8,4.1,6.2,4.7,7.2c0.7,1,1.3,1.8,1.8,2.6l10.8,15l8.5-6.1l-24.6-34.2l-12.3,8.9l10.5,29.3l-0.2,0.1
			L1333.8,666.2z"/>
		<polygon class="st4" points="1310.1,686 1293.1,704.3 1323.9,733 1341,714.7 1334.2,708.4 1324.9,718.4 1319.1,712.9 
			1327.7,703.7 1321,697.5 1312.4,706.7 1307.5,702.2 1316.8,692.2 		"/>
		<path class="st4" d="M1273.5,728.8l-8.1,11.2l34.2,24.6l6.6-9.2l-12.4-9l1.7-2.3l17.7,1.7l7.5-10.5l-22.1-0.8
			c0.6-5.4-1.1-9.6-5-12.4C1286.9,717.3,1280.2,719.5,1273.5,728.8z M1288.1,739.7l-1.2,1.7l-7.8-5.6l1.3-1.8
			c2.3-3.2,4.6-3.9,6.9-2.2C1290.2,733.8,1290.4,736.4,1288.1,739.7z"/>
		<path class="st4" d="M1426.6,654.6c-2.1,0.6-3.9,0.4-5.3-0.6c-1.4-1-2.6-2.9-3.4-5.8l-6.7-23.8l-11,3.1l6.9,24.7
			c1.5,5.3,4.1,9,7.9,11c3.8,2,8.4,2.2,13.9,0.7c5.7-1.6,9.6-4.3,11.8-8c2.2-3.7,2.5-8.3,1.1-13.6l-6.8-24.4l-11,3.1l6.6,23.7
			c0.8,2.9,0.9,5.2,0.3,6.7C1430.3,652.9,1428.8,654,1426.6,654.6z"/>
		
			<rect x="1383.1" y="636" transform="matrix(0.8765 -0.4814 0.4814 0.8765 -144.8067 749.7771)" class="st4" width="11.4" height="42.1"/>
		<path class="st4" d="M1568.9,637.7c1-7,0.1-12.6-2.8-16.7c-2.9-4.1-7.6-6.7-14.3-7.7c-6.6-1-11.9,0.1-15.9,3.2
			c-4,3.1-6.5,8.2-7.6,15.1c-1,7-0.1,12.6,2.9,16.8c2.9,4.2,7.7,6.8,14.2,7.7l0,0l0,0l0,0l6,10.3l14,2.1l-8.5-13.2
			C1563.6,653.1,1567.5,647.2,1568.9,637.7z M1557.1,636c-0.6,4.1-1.8,7.1-3.4,8.8c-1.7,1.8-3.9,2.4-6.8,2
			c-5.6-0.8-7.8-5.3-6.6-13.3c1.2-8.1,4.6-11.8,10.3-10.9c2.8,0.4,4.7,1.7,5.8,3.9C1557.5,628.6,1557.7,631.8,1557.1,636z"/>
		
			<rect x="1672.5" y="710.7" transform="matrix(0.739 -0.6737 0.6737 0.739 -40.6467 1327.9818)" class="st4" width="42.1" height="11.4"/>
		<polygon class="st4" points="1677.7,671.8 1649.3,702.8 1669.6,721.4 1675.8,714.7 1663.9,703.7 1686.1,679.4 		"/>
		<path class="st4" d="M1610.2,675.9l10.3,7.1l6.2-5.3l11.3,7.8l-2.8,7.7l10.3,7.1l12.5-42.7l-12.5-8.6L1610.2,675.9z M1645.9,663.9
			c-0.9,2.4-1.6,4.3-2.1,5.8l-2.4,6.7l-7.4-5.1c5.2-4.5,8.6-7.5,10.3-9c1.7-1.6,2.9-2.7,3.6-3.4
			C1647.5,659.9,1646.8,661.5,1645.9,663.9z"/>
		<polygon class="st4" points="1712.8,719.9 1718.8,728.3 1692.2,747.4 1698.8,756.7 1725.5,737.5 1731.5,745.8 1739,740.4 
			1720.4,714.5 		"/>
		<path class="st4" d="M1598.4,626.9l-10.7-4.1l-9.2,23.9c-2,5.1-2.1,9.6-0.2,13.5c1.8,3.8,5.4,6.8,10.8,8.8
			c5.5,2.1,10.2,2.3,14.2,0.6c4-1.7,7-5.1,9-10.3l9.1-23.7l-10.6-4.1l-8.8,23c-1.1,2.8-2.4,4.7-3.8,5.6c-1.5,0.9-3.3,0.9-5.4,0.1
			c-2-0.8-3.3-2-3.9-3.6c-0.6-1.7-0.3-3.9,0.8-6.6L1598.4,626.9z"/>
		<path class="st4" d="M1473,653.1l10.8-0.8l6.2-30.8l0.3,0c0.1,4.6,0.2,7.4,0.3,8.6c0.1,1.2,0.1,2.2,0.2,3.2l1.4,18.4l10.4-0.8
			l-3.2-42l-15.1,1.2l-6.3,30.5l-0.2,0l-11-29.1l-15.1,1.2l3.2,42l10-0.8l-1.4-18.2c-0.2-2.9-0.7-6.8-1.5-12l0.3,0L1473,653.1z"/>
		<polygon class="st4" points="1741.8,746.4 1725.7,771.1 1711.6,778.8 1717.1,788.9 1731.5,781 1760.7,780.8 1754.7,770 
			1737.5,771.1 1747.8,757.3 		"/>
		<path class="st5" d="M1502.1,1467c-68.4,0-132.9-26.8-181.6-75.5c-48.7-48.7-75.5-113.2-75.5-181.6V1115c0-4.4,3.6-8,8-8
			s8,3.6,8,8v94.9c0,132.9,108.1,241.1,241.1,241.1c132.9,0,241.1-108.1,241.1-241.1V1115c0-4.4,3.6-8,8-8s8,3.6,8,8v94.9
			c0,68.4-26.8,132.9-75.5,181.6C1634.9,1440.2,1570.5,1467,1502.1,1467z M1751.1,977.7c-4.4,0-8-3.6-8-8v-94.9
			c0-17.7-2-35.4-5.8-52.7c-1-4.3,1.7-8.6,6-9.6c4.3-1,8.6,1.7,9.6,6c4.1,18.4,6.2,37.3,6.2,56.2v94.9
			C1759.1,974.2,1755.5,977.7,1751.1,977.7z M1253,977.7c-4.4,0-8-3.6-8-8v-94.9c0-18.9,2.1-37.8,6.2-56.2c1-4.3,5.3-7,9.6-6
			c4.3,1,7,5.3,6,9.6c-3.9,17.2-5.8,35-5.8,52.7v94.9C1261,974.2,1257.4,977.7,1253,977.7z"/>
		<path class="st6" d="M1404.9,394.3C1182.1,439.7,1013,637.8,1013,873.5v337.7c0,104.3,33.1,201.3,89.4,280.9h57.6
			c-61.8-81.9-98.5-183.6-98.5-293.4V861C1061.5,642.7,1206.5,456.6,1404.9,394.3z"/>
		<path class="st4" d="M1114.6,1522.1c258.3,0.1,516.7,0.1,775,0l2.5-3.2c34.2-43.2,61.4-92.1,79.8-145
			c17.8-51.1,27.5-105.8,27.5-162.6V873.5c0-136.8-56-261.1-146.1-351.3c-90.1-90.1-214.5-146.1-351.3-146.1
			c-136.8,0-261.1,56-351.3,146.1c-90.1,90.1-146.1,214.5-146.1,351.3v337.7c0,56.8,9.7,111.6,27.5,162.6
			c18.5,52.9,45.6,101.8,79.8,145L1114.6,1522.1z M1021.4,1211.3V873.5c0-132.2,54.1-252.4,141.2-339.5
			c87.1-87.1,207.3-141.2,339.5-141.2c132.2,0,252.4,54.1,339.5,141.2c87.1,87.1,141.2,207.3,141.2,339.5v337.7
			c0,55-9.3,107.9-26.5,157.2c-17.4,49.9-42.8,96.1-74.7,137h-759c-31.9-40.9-57.3-87.1-74.7-137
			C1030.7,1319.2,1021.4,1266.3,1021.4,1211.3z"/>
		<path class="st4" d="M1241.1,1054.7c-1.7,0-3.6-0.3-5.6-0.8c-2-0.6-4-1.3-5.9-2.3v8.9c1.8,0.9,3.5,1.5,5.2,1.8
			c1.7,0.3,3.7,0.5,6.2,0.5c2.9,0,5.5-0.5,7.7-1.5c2.2-1,3.9-2.4,5-4.1c1.2-1.8,1.7-3.8,1.7-6.1c0-2.5-0.6-4.5-1.8-6.2
			c-1.2-1.6-3.4-3.2-6.6-4.6c-3.3-1.5-5.3-2.6-6.1-3.1c-0.7-0.6-1.1-1.2-1.1-1.9c0-0.7,0.3-1.2,0.9-1.7c0.6-0.5,1.5-0.7,2.8-0.7
			c2.5,0,5.5,0.8,8.9,2.4l3-7.7c-4-1.8-7.9-2.6-11.7-2.6c-4.3,0-7.7,0.9-10.2,2.8c-2.5,1.9-3.7,4.6-3.7,7.9c0,1.8,0.3,3.4,0.9,4.7
			c0.6,1.3,1.5,2.5,2.7,3.5c1.2,1,3,2.1,5.4,3.2c2.7,1.2,4.3,2,4.9,2.4c0.6,0.4,1.1,0.8,1.3,1.1c0.3,0.4,0.4,0.8,0.4,1.3
			c0,0.8-0.3,1.5-1,2C1243.6,1054.5,1242.5,1054.7,1241.1,1054.7z"/>
		<polygon class="st4" points="1224.8,1033.5 1224.8,1025.5 1202.9,1025.5 1202.9,1062.3 1224.8,1062.3 1224.8,1054.2 
			1212.8,1054.2 1212.8,1047.2 1223.9,1047.2 1223.9,1039.2 1212.8,1039.2 1212.8,1033.5 		"/>
		<polygon class="st4" points="1277.3,1062.3 1277.3,1033.6 1286.2,1033.6 1286.2,1025.5 1258.3,1025.5 1258.3,1033.6 
			1267.3,1033.6 1267.3,1062.3 		"/>
		<path class="st4" d="M1712.5,1062.3h10.1v-36.9h-9l-12.7,10.3l5.2,6.4l4.2-3.5c0.9-0.8,1.7-1.6,2.3-2.4c-0.1,2-0.2,4.1-0.2,6.5
			V1062.3z"/>
		<path class="st4" d="M1804.8,1062.8c4.5,0,7.8-1.5,10-4.6c2.2-3,3.3-7.8,3.3-14.3c0-6.3-1.1-11-3.4-14.2c-2.2-3.2-5.6-4.8-9.9-4.8
			c-4.5,0-7.8,1.5-10,4.6c-2.2,3.1-3.3,7.9-3.3,14.4c0,6.3,1.1,11,3.4,14.1C1797,1061.2,1800.4,1062.8,1804.8,1062.8z
			 M1802.1,1035.3c0.5-1.6,1.4-2.4,2.6-2.4c1.2,0,2.1,0.8,2.6,2.5c0.5,1.6,0.8,4.5,0.8,8.6c0,4.1-0.3,6.9-0.8,8.5
			c-0.5,1.6-1.4,2.4-2.6,2.4c-1.2,0-2.1-0.8-2.6-2.3c-0.5-1.6-0.8-4.4-0.8-8.6C1801.4,1039.7,1801.6,1036.8,1802.1,1035.3z"/>
		<path class="st4" d="M1775.8,1052.9c-1.9,1.5-4.7,2.2-8.2,2.2c-1.4,0-2.9-0.1-4.3-0.4v7.9c1.2,0.2,2.9,0.2,5.1,0.2
			c6.8,0,11.8-1.6,14.9-4.8c3.1-3.2,4.7-8.4,4.7-15.6c0-5.5-1.2-9.8-3.7-12.7c-2.5-3-6-4.5-10.5-4.5c-4.1,0-7.2,1.2-9.6,3.5
			c-2.3,2.3-3.5,5.5-3.5,9.6c0,3.8,0.9,6.7,2.7,8.8c1.8,2.1,4.3,3.2,7.5,3.2c1.4,0,2.5-0.1,3.5-0.4c0.9-0.3,1.7-0.7,2.3-1.2
			c0.6-0.5,1.3-1.4,1.9-2.6h0.3C1778.8,1049.1,1777.7,1051.4,1775.8,1052.9z M1776.8,1041.3c-0.8,0.8-1.8,1.2-2.8,1.2
			c-1.2,0-2.1-0.4-2.7-1.2c-0.6-0.8-0.9-1.9-0.9-3.3c0-1.7,0.3-3,1-3.8c0.7-0.8,1.6-1.2,2.7-1.2c1.1,0,2.1,0.5,2.8,1.6
			c0.7,1.1,1.1,2.4,1.1,3.9C1778,1039.6,1777.6,1040.6,1776.8,1041.3z"/>
		<path class="st4" d="M1745.6,1052.9c-1.9,1.5-4.7,2.2-8.2,2.2c-1.4,0-2.9-0.1-4.3-0.4v7.9c1.2,0.2,2.9,0.2,5.1,0.2
			c6.8,0,11.8-1.6,14.9-4.8c3.1-3.2,4.7-8.4,4.7-15.6c0-5.5-1.2-9.8-3.7-12.7c-2.5-3-6-4.5-10.5-4.5c-4.1,0-7.2,1.2-9.6,3.5
			c-2.3,2.3-3.5,5.5-3.5,9.6c0,3.8,0.9,6.7,2.7,8.8c1.8,2.1,4.3,3.2,7.5,3.2c1.4,0,2.5-0.1,3.5-0.4c0.9-0.3,1.7-0.7,2.3-1.2
			c0.6-0.5,1.3-1.4,1.9-2.6h0.3C1748.5,1049.1,1747.5,1051.4,1745.6,1052.9z M1746.6,1041.3c-0.8,0.8-1.8,1.2-2.8,1.2
			c-1.2,0-2.1-0.4-2.7-1.2c-0.6-0.8-0.9-1.9-0.9-3.3c0-1.7,0.3-3,1-3.8c0.7-0.8,1.6-1.2,2.7-1.2c1.1,0,2.1,0.5,2.8,1.6
			c0.7,1.1,1.1,2.4,1.1,3.9C1747.8,1039.6,1747.4,1040.6,1746.6,1041.3z"/>
		<g>
			<polygon class="st7" points="1052.1,1073.7 1098.8,1088 1099.6,1039.2 1127.6,999.2 1081.5,983.3 1052.1,944.3 1022.7,983.3 
				976.5,999.2 1004.5,1039.2 1005.4,1088 			"/>
			<path class="st4" d="M1052.1,1082.4l54.8,16.7l1-57.3l32.9-47l-54.2-18.7l-27.9-37l-6.6-8.8l-34.5,45.8l-54.2,18.7l32.9,47
				l1,57.3L1052.1,1082.4z M989.6,1003.5l38.1-13.1l24.3-32.2l22.8,30.2l1.5,2l38.1,13.1l-23.1,33l-0.7,40.3l-38.6-11.8l-38.6,11.8
				l-0.7-40.3L989.6,1003.5z"/>
		</g>
		<g>
			<polygon class="st7" points="1948.9,1073.7 1995.6,1088 1996.5,1039.2 2024.5,999.2 1978.3,983.3 1948.9,944.3 1919.5,983.3 
				1873.4,999.2 1901.4,1039.2 1902.2,1088 			"/>
			<path class="st4" d="M1948.9,1082.4l54.8,16.7l1-57.3l32.9-47l-54.2-18.7l-27.9-37l-6.6-8.8l-34.5,45.8l-54.2,18.7l32.9,47
				l1,57.3L1948.9,1082.4z M1886.5,1003.5l38.1-13.1l24.3-32.2l22.8,30.2l1.5,2l38.1,13.1l-23.1,33l-0.7,40.3l-38.6-11.8l-38.6,11.8
				l-0.7-40.3L1886.5,1003.5z"/>
		</g>
		<path class="st7" d="M1955.7,1616.5c25.1,0,45.6-20.5,45.6-45.6v-159.1c0-25.1-20.5-45.6-45.6-45.6h-910.4
			c-25.1,0-45.6,20.5-45.6,45.6v159.1c0,25.1,20.5,45.6,45.6,45.6H1955.7z"/>
		<path class="st4" d="M1955.7,1624.8c14.9,0,28.4-6.1,38.1-15.9c9.8-9.8,15.9-23.3,15.9-38.1v-21v-39.1v-39.1v-39.1v-21
			c0-14.9-6.1-28.4-15.9-38.1c-9.8-9.8-23.3-15.9-38.1-15.9h-910.4c-14.9,0-28.4,6.1-38.1,15.9c-9.8,9.8-15.9,23.3-15.9,38.1v21
			v39.1v39.1v39.1v21c0,14.9,6.1,28.4,15.9,38.1c9.8,9.8,23.3,15.9,38.1,15.9H1955.7z M1008,1570.8v-12.6h90.8
			c4.6,0,8.3-3.7,8.3-8.3c0-4.6-3.7-8.3-8.3-8.3H1008v-22.4h90.8c4.6,0,8.3-3.7,8.3-8.3c0-4.6-3.7-8.3-8.3-8.3H1008v-22.4h90.8
			c4.6,0,8.3-3.7,8.3-8.3c0-4.6-3.7-8.3-8.3-8.3H1008V1441h90.8c4.6,0,8.3-3.7,8.3-8.3c0-4.6-3.7-8.3-8.3-8.3H1008v-12.6
			c0-10.3,4.2-19.6,11-26.3c6.8-6.8,16.1-11,26.3-11h910.4c10.3,0,19.6,4.2,26.3,11c6.8,6.8,11,16.1,11,26.3v12.6h-90.8
			c-4.6,0-8.3,3.7-8.3,8.3c0,4.6,3.7,8.3,8.3,8.3h90.8v22.4h-90.8c-4.6,0-8.3,3.7-8.3,8.3c0,4.6,3.7,8.3,8.3,8.3h90.8v22.4h-90.8
			c-4.6,0-8.3,3.7-8.3,8.3c0,4.6,3.7,8.3,8.3,8.3h90.8v22.4h-90.8c-4.6,0-8.3,3.7-8.3,8.3c0,4.6,3.7,8.3,8.3,8.3h90.8v12.6
			c0,10.3-4.2,19.6-11,26.3c-6.8,6.8-16.1,11-26.3,11h-910.4c-10.3,0-19.6-4.2-26.3-11C1012.2,1590.4,1008,1581.1,1008,1570.8z"/>
		<path class="st4" d="M1458.1,1471.7v-11.7c0-19.2-9.6-30.2-28.1-30.2c-18.5,0-28.1,11-28.1,30.2v62.4c0,19.2,9.6,30.2,28.1,30.2
			c18.5,0,28.1-11,28.1-30.2v-15.9h-17.8v17.1c0,8.6-3.8,11.7-9.8,11.7c-6,0-9.8-3.1-9.8-11.7v-64.8c0-8.6,3.8-11.8,9.8-11.8
			c6,0,9.8,3.3,9.8,11.8v12.9H1458.1z"/>
		<polygon class="st4" points="1365.2,1448.4 1365.2,1431.3 1313.7,1431.3 1313.7,1551.3 1365.2,1551.3 1365.2,1534.2 
			1332.6,1534.2 1332.6,1499 1358.5,1499 1358.5,1481.9 1332.6,1481.9 1332.6,1448.4 		"/>
		<rect x="1179.3" y="1431.3" class="st4" width="18.9" height="120"/>
		<path class="st4" d="M1284.4,1471.7v-11.7c0-19.2-9.6-30.2-28.1-30.2s-28.1,11-28.1,30.2v62.4c0,19.2,9.6,30.2,28.1,30.2
			s28.1-11,28.1-30.2v-15.9h-17.8v17.1c0,8.6-3.8,11.7-9.8,11.7c-6,0-9.8-3.1-9.8-11.7v-64.8c0-8.6,3.8-11.8,9.8-11.8
			c6,0,9.8,3.3,9.8,11.8v12.9H1284.4z"/>
		<polygon class="st4" points="1821.7,1551.3 1821.7,1431.3 1795.4,1431.3 1782.7,1516.5 1782.4,1516.5 1768.7,1431.3 
			1742.4,1431.3 1742.4,1551.3 1758.9,1551.3 1758.9,1466.4 1759.2,1466.4 1773,1551.3 1790.8,1551.3 1803.5,1465.2 1803.8,1465.2 
			1803.8,1551.3 		"/>
		<path class="st4" d="M1543.8,1468.3v-9.4c0-18.5-8.4-27.6-27.9-27.6h-28.5v120h18.9v-48.9h6.5c8.6,0,12.3,4.1,12.3,15.3v18.9
			c0,9.8,0.7,11.7,1.7,14.7h19.2c-1.9-4.5-2.1-8.7-2.1-14.6v-18.5c0-12.5-3.1-21.4-12.5-25.4v-0.3
			C1539.9,1488.5,1543.8,1480.7,1543.8,1468.3z M1524.9,1472.6c0,9.6-4.3,12.7-11.3,12.7h-7.4v-36.9h9.1c6.7,0,9.6,3.8,9.6,12.3
			V1472.6z"/>
		<path class="st4" d="M1693.8,1529.5l3.3,21.8h19l-19.2-120h-27.6l-19.2,120h17.3l3.3-21.8H1693.8z M1681.9,1452.5h0.3l8.9,60.7
			H1673L1681.9,1452.5z"/>
		<polygon class="st4" points="1625.6,1448.4 1625.6,1431.3 1574.1,1431.3 1574.1,1551.3 1625.6,1551.3 1625.6,1534.2 1593,1534.2 
			1593,1499 1618.9,1499 1618.9,1481.9 1593,1481.9 1593,1448.4 		"/>
		<g>
			<path class="st8" d="M1500.2,1411.1L1500.2,1411.1c33.9,0,70.8-26.2,57.1-77.4c-7.8-29-11.7-54.6-11.8-80c0.1-25.4,4-51,11.8-80
				c13.7-51.1-23.2-77.4-57.1-77.4h0c-33.9,0-70.8,26.2-57.1,77.4c7.8,29,11.7,54.6,11.8,80c-0.1,25.4-4,51-11.8,80
				C1429.4,1384.9,1466.3,1411.1,1500.2,1411.1z"/>
			<path class="st3" d="M1500.2,1411.1L1500.2,1411.1L1500.2,1411.1c4.9,0,9.9-0.6,14.7-1.6c-28.8-6.5-54.1-32-42.4-75.7
				c7.8-29,11.7-54.6,11.8-80c-0.1-25.4-4-51-11.8-80c-11.7-43.7,13.6-69.2,42.4-75.7c-4.9-1.1-9.8-1.6-14.7-1.6h0h0
				c-33.9,0-70.8,26.2-57.1,77.4c7.8,29,11.7,54.6,11.8,80c-0.1,25.4-4,51-11.8,80C1429.4,1384.9,1466.3,1411.1,1500.2,1411.1z"/>
			<path class="st4" d="M1435,1331.6c-2.2,8.3-3.2,15.9-3.2,23c0,17.1,5.8,30.9,14.8,41.4c9,10.4,21.1,17.3,34,20.8
				c6.4,1.7,13,2.6,19.5,2.6c6.5,0,13.1-0.9,19.5-2.6c12.9-3.5,25-10.4,34-20.8c9.1-10.5,14.8-24.4,14.8-41.4c0-7.1-1-14.8-3.2-23
				c-2.4-8.9-4.4-17.6-6.1-26c-1.7-8.4-2.9-16.5-3.8-24.4c-0.5-4.6-4.6-7.9-9.2-7.4c-4.6,0.5-7.9,4.6-7.4,9.2c1,8.5,2.3,17.1,4,25.8
				c1.7,8.7,3.8,17.7,6.3,27.1c1.8,6.7,2.6,13,2.6,18.7c0,12.8-4.2,23-10.7,30.6c-6.7,7.7-15.9,12.9-25.7,15.6c-5,1.3-10.1,2-15.2,2
				c-5.1,0-10.3-0.7-15.2-2c-9.9-2.6-19.1-7.9-25.7-15.6c-6.6-7.6-10.7-17.8-10.7-30.6c0-5.7,0.8-12,2.6-18.7c4-14.8,7-28.7,9-42.3
				c2-13.5,3-26.6,3.1-39.9c0-13.2-1.1-26.4-3.1-39.9c-2-13.5-5-27.5-9-42.3c-1.8-6.7-2.6-13-2.6-18.7c0-12.8,4.2-23,10.7-30.6
				c6.7-7.7,15.9-12.9,25.7-15.6c5-1.3,10.1-2,15.2-2c5.1,0,10.3,0.7,15.2,2c9.9,2.6,19.1,7.9,25.7,15.6
				c6.6,7.6,10.7,17.8,10.7,30.6c0,5.7-0.8,12-2.6,18.7c-4,14.8-7,28.7-9,42.3c-2,13.5-3,26.6-3.1,39.9c0,4.6,3.7,8.3,8.3,8.3
				c4.6,0,8.3-3.7,8.3-8.3c0-12.2,1-24.5,2.9-37.4c1.9-12.9,4.8-26.2,8.6-40.4c2.2-8.3,3.2-15.9,3.2-23c0-17.1-5.8-30.9-14.8-41.4
				c-9-10.4-21.1-17.3-34-20.8c-6.4-1.7-13-2.6-19.5-2.6c-6.5,0-13.1,0.9-19.5,2.6c-12.9,3.5-25,10.4-34,20.8
				c-9.1,10.5-14.8,24.3-14.8,41.4c0,7.1,1,14.8,3.2,23c3.8,14.2,6.7,27.5,8.6,40.4c1.9,12.9,2.9,25.3,2.9,37.4
				c0,12.2-1,24.5-2.9,37.4C1441.7,1304.1,1438.8,1317.4,1435,1331.6z"/>
			<path class="st2" d="M1502.1,731.5c-77.9,0-141.6,63.7-141.6,141.6v288.1c0,17.9,14.6,32.5,32.5,32.5h218.1
				c17.9,0,32.5-14.6,32.5-32.5V885c-28.8-2.3-51.7-25.9-52.8-55.1c-32.1-12.8-54.8-44.2-54.8-80.8c0-4.5,0.3-8.9,1-13.1
				C1525.8,733.1,1514.1,731.5,1502.1,731.5z"/>
			<path class="st3" d="M1518.7,732.5c-5.5-0.6-11-1-16.7-1c-77.9,0-141.6,63.7-141.6,141.6v180.3l33.4,0l0-180.3
				C1393.8,800.9,1448.7,740.9,1518.7,732.5z"/>
			<path class="st0" d="M1611.1,1193.8c17.9,0,32.5-14.6,32.5-32.5v-107.8h-283.2v107.8c0,17.9,14.6,32.5,32.5,32.5H1611.1z"/>
			<path class="st3" d="M1360.5,1053.4l0,107.8c0,17.9,14.6,32.5,32.5,32.6l33.4,0c-17.9,0-32.6-14.6-32.6-32.5v-107.8H1360.5z"/>
			<path class="st4" d="M1434.2,1061.7c4.6,0,8.3-3.7,8.3-8.3c0-4.6-3.7-8.3-8.3-8.3h-73.7c-4.6,0-8.3,3.7-8.3,8.3
				c0,4.6,3.7,8.3,8.3,8.3H1434.2z"/>
			<path class="st2" d="M1480.5,1121.3v-74.3h-46.3v74.3c0,12.7,10.4,23.2,23.2,23.2C1470.1,1144.4,1480.5,1134,1480.5,1121.3z"/>
			<path class="st0" d="M1503.7,1014c-12.7,0-23.2,10.4-23.2,23.2v74.3h46.3v-74.3C1526.8,1024.4,1516.4,1014,1503.7,1014z"/>
			<path class="st4" d="M1434.2,1045.1c-4.6,0-8.3,3.7-8.3,8.3v67.8c0,8.7,3.5,16.5,9.2,22.2c5.7,5.7,13.6,9.2,22.2,9.2
				c8.7,0,16.5-3.5,22.2-9.2c5.7-5.7,9.2-13.6,9.2-22.2v-74.3c0-4.6-3.7-8.3-8.3-8.3c-4.6,0-8.3,3.7-8.3,8.3v74.3
				c0,4.1-1.7,7.8-4.4,10.5c-2.7,2.7-6.4,4.4-10.5,4.4c-4.1,0-7.8-1.7-10.5-4.4c-2.7-2.7-4.4-6.4-4.4-10.5v-67.8
				C1442.5,1048.8,1438.8,1045.1,1434.2,1045.1z"/>
			<path class="st4" d="M1526.8,1061.7c4.6,0,8.3-3.7,8.3-8.3v-16.2c0-8.6-3.5-16.5-9.2-22.2l0,0c-5.7-5.7-13.6-9.2-22.2-9.2
				c-8.6,0-16.5,3.5-22.2,9.2l0,0c-5.7,5.7-9.2,13.6-9.2,22.2v74.3c0,4.6,3.7,8.3,8.3,8.3c4.6,0,8.3-3.7,8.3-8.3v-74.3
				c0-4.1,1.7-7.8,4.3-10.5c2.7-2.7,6.4-4.3,10.5-4.3c4.1,0,7.8,1.7,10.5,4.3c2.7,2.7,4.3,6.4,4.3,10.5v16.2
				C1518.5,1058,1522.2,1061.7,1526.8,1061.7z"/>
			<path class="st4" d="M1643.7,1061.7c4.6,0,8.3-3.7,8.3-8.3c0-4.6-3.7-8.3-8.3-8.3h-116.8c-4.6,0-8.3,3.7-8.3,8.3
				c0,4.6,3.7,8.3,8.3,8.3H1643.7z"/>
			<path class="st4" d="M1372.1,843.8c2.2-9.7,5.5-19.1,9.7-27.8c2-4.1,0.2-9.1-3.9-11.1c-4.1-2-9.1-0.2-11.1,3.9
				c-4.8,9.9-8.4,20.4-10.9,31.3c-2.4,10.7-3.7,21.7-3.7,33v288.1c0,11.2,4.6,21.5,12,28.9c7.4,7.4,17.6,12,28.9,12h218.1
				c11.2,0,21.5-4.6,28.9-12c7.4-7.4,12-17.6,12-28.9l0-276.2c0-4.3-3.3-8-7.7-8.3c-12.4-1-23.4-6.6-31.5-15
				c-8.1-8.4-13.2-19.7-13.6-32.1c-0.1-3.2-2.1-6.2-5.2-7.4c-14.7-5.9-27.3-16.1-36.1-29c-8.5-12.5-13.5-27.7-13.5-44.1
				c0-2.1,0.1-4.1,0.2-6c0.1-2,0.4-3.9,0.7-5.9l0,0c0.6-4.2-2-8.2-6.2-9.3c-6-1.5-12.1-2.7-18.3-3.5l0,0c-6.3-0.8-12.5-1.2-18.7-1.2
				c-21.5,0-42,4.6-60.6,12.9c-19.3,8.6-36.4,21.1-50.4,36.5c-3.1,3.4-2.8,8.7,0.6,11.8c3.4,3.1,8.7,2.8,11.8-0.6
				c12.5-13.8,27.7-24.9,44.9-32.5c16.4-7.3,34.6-11.4,53.8-11.4c5.8,0,11.4,0.3,16.6,1c3.1,0.4,6.2,0.9,9.3,1.5
				c-0.2,2.3-0.2,4.5-0.2,6.7c0,19.7,6,38.1,16.4,53.4c9.7,14.3,23.1,25.8,38.8,33.1c1.7,14.6,8.2,27.6,17.8,37.7
				c9.1,9.5,21.1,16.3,34.5,19v268.9c0,6.7-2.7,12.7-7.1,17.1s-10.4,7.1-17.1,7.1H1393c-6.7,0-12.7-2.7-17.1-7.1
				c-4.4-4.4-7.1-10.4-7.1-17.1V873.1C1368.8,863,1369.9,853.2,1372.1,843.8z"/>
			<path class="st4" d="M1592,958.5L1592,958.5c3.8-2.2,5.1-7.1,2.9-10.9l-16.6-28.8c-2.2-3.8-7.1-5.1-10.9-2.9l0,0
				c-3.8,2.2-5.1,7.1-2.9,10.9l16.6,28.8C1583.3,959.4,1588.2,960.7,1592,958.5z"/>
			<path class="st4" d="M1479.8,932.8l23.5-23.5c3.1-3.1,3.1-8.2,0-11.3l0,0c-3.1-3.1-8.2-3.1-11.3,0l-23.5,23.5
				c-3.1,3.1-3.1,8.2,0,11.3l0,0C1471.6,935.9,1476.7,935.9,1479.8,932.8z"/>
			<path class="st4" d="M1438.5,982L1438.5,982c3.8-2.2,5.1-7.1,2.9-10.9l-16.6-28.8c-2.2-3.8-7.1-5.1-10.9-2.9l0,0
				c-3.8,2.2-5.1,7.1-2.9,10.9l16.6,28.8C1429.7,982.9,1434.7,984.2,1438.5,982z"/>
			<path class="st4" d="M1517.8,846.8L1517.8,846.8c3.1-3.1,3.1-8.2,0-11.3l-23.5-23.5c-3.1-3.1-8.2-3.1-11.3,0l0,0
				c-3.1,3.1-3.1,8.2,0,11.3l23.5,23.5C1509.6,849.9,1514.7,849.9,1517.8,846.8z"/>
		</g>
	</g>
</g>
</svg>
